<svg xmlns="http://www.w3.org/2000/svg" version="1.1" xmlns:xlink="http://www.w3.org/1999/xlink" xmlns:svgjs="http://svgjs.com/svgjs" width="1440" height="1000" preserveAspectRatio="none" viewBox="0 0 1440 1000"><g mask="url(&quot;#SvgjsMask1046&quot;)" fill="none"><rect width="1440" height="1000" x="0" y="0" fill="rgba(143, 88, 58, 1)"></rect><path d="M533.013,659.684C592.871,660.899,649.391,631.492,680.674,580.445C713.439,526.98,719.418,459.967,689.012,405.126C657.725,348.696,597.525,312.943,533.013,314.123C470.367,315.269,415.863,355.258,386.597,410.659C359.191,462.538,365.645,524.075,395.383,574.653C424.678,624.477,475.227,658.511,533.013,659.684" fill="rgba(255, 227, 227, 0.38)" class="triangle-float2"></path><path d="M954.956,1297.035C1038.131,1297.289,1119.278,1257.182,1158.347,1183.754C1195.481,1113.962,1175.993,1029.805,1132.136,964.03C1093.16,905.576,1025.109,882.514,954.956,878.718C875.315,874.408,785.174,876.38,741.127,942.872C693.779,1014.347,709.391,1109.123,753.704,1182.518C796.462,1253.337,872.23,1296.782,954.956,1297.035" fill="rgba(255, 227, 227, 0.38)" class="triangle-float2"></path><path d="M497.748,656.586C557.388,652.636,597.634,601.862,626.144,549.329C653.003,499.839,666.161,442.859,641.108,392.43C613.183,336.221,560.512,290.984,497.748,290.886C434.848,290.787,385.258,337.623,353.608,391.98C321.712,446.759,305.755,512.874,336.078,568.54C367.54,626.296,432.123,660.932,497.748,656.586" fill="rgba(255, 227, 227, 0.38)" class="triangle-float3"></path><path d="M680.47 833.61 a297.69 297.69 0 1 0 595.38 0 a297.69 297.69 0 1 0 -595.38 0z" fill="rgba(255, 227, 227, 0.38)" class="triangle-float1"></path><path d="M191.719,1231.06C265.425,1237.763,340.735,1200.764,375.474,1135.414C408.605,1073.089,385.683,998.665,346.448,939.99C311.913,888.344,253.791,857.963,191.719,860.616C133.941,863.085,85.946,901.5,58.317,952.304C31.99,1000.712,34.187,1056.836,57.974,1106.541C86.156,1165.431,126.701,1225.147,191.719,1231.06" fill="rgba(255, 227, 227, 0.38)" class="triangle-float1"></path><path d="M215.619,757.004C264.292,757.927,309.934,728.524,331.112,684.69C350.152,645.281,331.046,601.905,308.752,564.24C287.029,527.539,258.146,492.772,215.619,489.566C167.701,485.954,118.202,506.28,94.514,548.09C71.093,589.429,83.645,639.342,107.474,680.448C131.215,721.402,168.29,756.106,215.619,757.004" fill="rgba(255, 227, 227, 0.38)" class="triangle-float3"></path><path d="M1459.553,973.379C1547.896,976.481,1640.163,939.157,1679.463,859.976C1715.937,786.489,1674.118,703.468,1626.772,636.467C1587.842,581.376,1526.837,553.619,1459.553,548.777C1380.049,543.056,1288.452,542.335,1244.715,608.974C1198.197,679.851,1221.805,772.384,1264.861,845.416C1307.134,917.118,1376.368,970.458,1459.553,973.379" fill="rgba(255, 227, 227, 0.38)" class="triangle-float3"></path><path d="M574.388,1357.165C663.241,1354.958,727.174,1283.235,772.626,1206.856C819.48,1128.12,858.182,1034.317,814.405,953.83C769.232,870.778,668.918,840.886,574.388,842.386C482.801,843.839,392.964,881.889,347.213,961.244C301.506,1040.523,312.784,1137.774,358.327,1217.147C404.105,1296.929,482.433,1359.449,574.388,1357.165" fill="rgba(255, 227, 227, 0.38)" class="triangle-float2"></path><path d="M878.514,511.47C942.375,514.259,1009.55,492.588,1041.232,437.07C1072.704,381.92,1054.13,315.049,1021.788,260.405C990.174,206.993,940.58,161.723,878.514,162.151C817.037,162.575,767.596,208.136,738.624,262.359C711.433,313.248,710.429,373.55,738.68,423.858C767.546,475.262,819.616,508.898,878.514,511.47" fill="rgba(255, 227, 227, 0.38)" class="triangle-float3"></path><path d="M1061.396,1326.714C1145.324,1324.944,1213.998,1266.159,1254.262,1192.498C1292.751,1122.086,1297.595,1037.436,1257.525,967.911C1217.404,898.297,1141.712,855.58,1061.396,857.857C984.67,860.032,923.35,912.832,883.628,978.512C842.138,1047.115,817.447,1129.537,853.902,1200.943C893.318,1278.148,974.73,1328.542,1061.396,1326.714" fill="rgba(255, 227, 227, 0.38)" class="triangle-float1"></path></g><defs><mask id="SvgjsMask1046"><rect width="1440" height="1000" fill="#ffffff"></rect></mask><style>
            @keyframes float1 {
                0%{transform: translate(0, 0)}
                50%{transform: translate(-10px, 0)}
                100%{transform: translate(0, 0)}
            }

            .triangle-float1 {
                animation: float1 5s infinite;
            }

            @keyframes float2 {
                0%{transform: translate(0, 0)}
                50%{transform: translate(-5px, -5px)}
                100%{transform: translate(0, 0)}
            }

            .triangle-float2 {
                animation: float2 4s infinite;
            }

            @keyframes float3 {
                0%{transform: translate(0, 0)}
                50%{transform: translate(0, -10px)}
                100%{transform: translate(0, 0)}
            }

            .triangle-float3 {
                animation: float3 6s infinite;
            }
        </style></defs></svg>