<svg xmlns="http://www.w3.org/2000/svg" version="1.1" xmlns:xlink="http://www.w3.org/1999/xlink" xmlns:svgjs="http://svgjs.com/svgjs" width="1440" height="1000" preserveAspectRatio="none" viewBox="0 0 1440 1000"><g mask="url(&quot;#SvgjsMask1000&quot;)" fill="none"><rect width="1440" height="1000" x="0" y="0" fill="rgba(143, 88, 58, 1)"></rect><path d="M-193.16 59.82 a252.98 252.98 0 1 0 505.96 0 a252.98 252.98 0 1 0 -505.96 0z" fill="rgba(255, 227, 227, 0.38)" class="triangle-float3"></path><path d="M-139.99 6.66 a146.65 146.65 0 1 0 293.3 0 a146.65 146.65 0 1 0 -293.3 0z" fill="rgba(255, 227, 227, 0.38)" class="triangle-float1"></path><path d="M40.906,131.672C74.604,131.559,108.779,119.002,125.358,89.664C141.719,60.711,134.795,25.069,117.034,-3.047C100.538,-29.161,71.779,-43.074,40.906,-44.024C8.037,-45.036,-26.142,-35.741,-43.797,-7.997C-62.639,21.611,-62.728,60.224,-44.53,90.232C-26.939,119.239,6.982,131.785,40.906,131.672" fill="rgba(255, 227, 227, 0.38)" class="triangle-float3"></path><path d="M1020.03 86.64 a306.61 306.61 0 1 0 613.22 0 a306.61 306.61 0 1 0 -613.22 0z" fill="rgba(255, 227, 227, 0.38)" class="triangle-float1"></path><path d="M1076.07 30.59 a194.52 194.52 0 1 0 389.04 0 a194.52 194.52 0 1 0 -389.04 0z" fill="rgba(255, 227, 227, 0.38)" class="triangle-float3"></path><path d="M1078.17 28.51 a190.34 190.34 0 1 0 380.68 0 a190.34 190.34 0 1 0 -380.68 0z" fill="rgba(255, 227, 227, 0.38)" class="triangle-float3"></path><path d="M-107.62 774.28 a81.9 81.9 0 1 0 163.8 0 a81.9 81.9 0 1 0 -163.8 0z" fill="rgba(255, 227, 227, 0.38)" class="triangle-float2"></path><path d="M94.942,1040.03C149.347,1040.668,204.141,1020.801,232.292,974.241C261.337,926.202,261.885,863.135,229.71,817.133C200.967,776.037,144.938,773.934,94.942,777.864C53.019,781.159,16.178,801.047,-7.529,835.78C-35.417,876.638,-59.123,926.868,-36.94,971.084C-13.099,1018.606,41.779,1039.407,94.942,1040.03" fill="rgba(255, 227, 227, 0.38)" class="triangle-float2"></path><path d="M42.884,949.463C77.224,947.941,97.922,914.212,112.558,883.11C124.726,857.253,124.973,828.458,111.745,803.127C97.33,775.522,74.026,749.741,42.884,749.685C11.675,749.629,-10.748,775.883,-26.405,802.88C-42.132,829.996,-51.775,861.461,-38.379,889.801C-22.987,922.363,6.902,951.058,42.884,949.463" fill="rgba(255, 227, 227, 0.38)" class="triangle-float2"></path><path d="M1098.84 807.84 a149 149 0 1 0 298 0 a149 149 0 1 0 -298 0z" fill="rgba(255, 227, 227, 0.38)" class="triangle-float3"></path><path d="M1329.756,1020.129C1379.35,1020.07,1430.055,1004.904,1456.148,962.729C1483.482,918.547,1481.841,861.935,1455.234,817.311C1429.246,773.726,1380.388,747.362,1329.756,750.754C1283.912,753.825,1253.948,792.939,1230.37,832.375C1205.89,873.319,1180.52,920.871,1202.838,963.032C1226.099,1006.976,1280.035,1020.189,1329.756,1020.129" fill="rgba(255, 227, 227, 0.38)" class="triangle-float3"></path><path d="M1357.047,1065.984C1413.975,1065.801,1471.445,1048.731,1502.565,1001.062C1536.632,948.88,1546.308,879.682,1513.099,826.95C1481.472,776.73,1416.36,767.931,1357.047,769.993C1302.138,771.902,1248.144,790.785,1218.717,837.182C1187.134,886.98,1179.39,951.539,1209.899,1002.002C1239.558,1051.058,1299.722,1066.168,1357.047,1065.984" fill="rgba(255, 227, 227, 0.38)" class="triangle-float3"></path></g><defs><mask id="SvgjsMask1000"><rect width="1440" height="1000" fill="#ffffff"></rect></mask><style>
            @keyframes float1 {
                0%{transform: translate(0, 0)}
                50%{transform: translate(-10px, 0)}
                100%{transform: translate(0, 0)}
            }

            .triangle-float1 {
                animation: float1 5s infinite;
            }

            @keyframes float2 {
                0%{transform: translate(0, 0)}
                50%{transform: translate(-5px, -5px)}
                100%{transform: translate(0, 0)}
            }

            .triangle-float2 {
                animation: float2 4s infinite;
            }

            @keyframes float3 {
                0%{transform: translate(0, 0)}
                50%{transform: translate(0, -10px)}
                100%{transform: translate(0, 0)}
            }

            .triangle-float3 {
                animation: float3 6s infinite;
            }
        </style></defs></svg>