<svg width="98" height="47" viewBox="0 0 98 47" fill="none" xmlns="http://www.w3.org/2000/svg">
<path d="M5.44821 9.23196C5.66488 9.23324 5.85794 9.27938 6.02741 9.37038C6.20021 9.4614 6.33442 9.59553 6.43004 9.77276C6.529 9.95002 6.57774 10.1636 6.57626 10.4136L6.56667 12.0386L6.00168 12.0353L6.01077 10.4953C6.01222 10.2486 5.95167 10.0599 5.82911 9.92922C5.70656 9.79516 5.53862 9.7275 5.32529 9.72625C5.11197 9.72499 4.94157 9.79065 4.81412 9.92323C4.69003 10.0525 4.62725 10.2405 4.62579 10.4871L4.61671 12.0271L4.05172 12.0238L4.0608 10.4838C4.06226 10.2371 4.0017 10.0484 3.87914 9.91772C3.7566 9.78366 3.58866 9.716 3.37533 9.71474C3.162 9.71348 2.99161 9.77914 2.86416 9.91173C2.74006 10.041 2.67728 10.229 2.67583 10.4756L2.66674 12.0156L2.09675 12.0122L2.11301 9.25728L2.683 9.26065L2.68114 9.57564C2.77514 9.46286 2.89399 9.37523 3.03769 9.31274C3.1814 9.25025 3.33492 9.21949 3.49825 9.22046C3.71824 9.22175 3.91463 9.26958 4.08741 9.36394C4.26019 9.45829 4.39273 9.59407 4.48501 9.77129C4.56933 9.60512 4.7001 9.47422 4.87734 9.3786C5.05459 9.27964 5.24488 9.23076 5.44821 9.23196Z" fill="#FF0000"/>
<path d="M7.16041 8.91706L7.16348 8.39707L8.20346 8.4032L8.18196 12.0481L7.60697 12.0447L7.62541 8.9198L7.16041 8.91706Z" fill="#AD5425"/>
<path d="M23.8914 22.5148H28.1882C28.0736 24.0356 27.6518 25.3846 26.9226 26.5616C26.1934 27.7283 25.1778 28.645 23.8757 29.3116C22.5736 29.9783 20.9955 30.3116 19.1414 30.3116C17.7143 30.3116 16.4278 30.0616 15.282 29.5616C14.1466 29.0512 13.1726 28.3273 12.3601 27.3898C11.558 26.4419 10.9434 25.3064 10.5164 23.9835C10.0893 22.6502 9.87573 21.1554 9.87573 19.4991V17.7648C9.87573 16.1085 10.0945 14.6137 10.532 13.2804C10.9695 11.9471 11.5945 10.8116 12.407 9.87415C13.2299 8.92623 14.2143 8.19706 15.3601 7.68665C16.5164 7.17623 17.808 6.92102 19.2351 6.92102C21.0893 6.92102 22.657 7.26477 23.9382 7.95227C25.2195 8.62935 26.2143 9.56165 26.9226 10.7491C27.6309 11.9366 28.058 13.3012 28.2039 14.8429H23.907C23.8236 13.8846 23.6153 13.0721 23.282 12.4054C22.9591 11.7387 22.4695 11.2335 21.8132 10.8898C21.1674 10.5356 20.308 10.3585 19.2351 10.3585C18.4018 10.3585 17.6674 10.5148 17.032 10.8273C16.407 11.1398 15.8861 11.6085 15.4695 12.2335C15.0528 12.8481 14.7403 13.6189 14.532 14.546C14.3236 15.4627 14.2195 16.5252 14.2195 17.7335V19.4991C14.2195 20.6554 14.3132 21.6919 14.5007 22.6085C14.6882 23.5252 14.9799 24.3012 15.3757 24.9366C15.7716 25.5721 16.282 26.0564 16.907 26.3898C17.532 26.7231 18.2768 26.8898 19.1414 26.8898C20.1934 26.8898 21.0476 26.7231 21.7039 26.3898C22.3705 26.0564 22.8757 25.5669 23.2195 24.921C23.5736 24.2752 23.7976 23.4731 23.8914 22.5148ZM35.5789 5.99915V29.9991H31.4382V5.99915H35.5789ZM48.8289 26.4054V18.6085C48.8289 18.0356 48.7299 17.5408 48.532 17.1241C48.3341 16.7075 48.032 16.3846 47.6257 16.1554C47.2195 15.9262 46.7039 15.8116 46.0789 15.8116C45.5268 15.8116 45.0424 15.9054 44.6257 16.0929C44.2195 16.2804 43.907 16.546 43.6882 16.8898C43.4695 17.2231 43.3601 17.6085 43.3601 18.046H39.2195C39.2195 17.3481 39.3861 16.6866 39.7195 16.0616C40.0528 15.4262 40.5268 14.8637 41.1414 14.3741C41.7664 13.8741 42.5111 13.4835 43.3757 13.2023C44.2507 12.921 45.2299 12.7804 46.3132 12.7804C47.5945 12.7804 48.7351 12.9991 49.7351 13.4366C50.7455 13.8637 51.5372 14.5096 52.1101 15.3741C52.6934 16.2387 52.9851 17.3273 52.9851 18.6398V26.0148C52.9851 26.8585 53.0372 27.5825 53.1414 28.1866C53.2559 28.7804 53.4226 29.296 53.6414 29.7335V29.9991H49.4382C49.2403 29.5721 49.0893 29.0304 48.9851 28.3741C48.8809 27.7075 48.8289 27.0512 48.8289 26.4054ZM49.407 19.7023L49.4382 22.1554H46.8289C46.183 22.1554 45.6153 22.2231 45.1257 22.3585C44.6361 22.4835 44.2351 22.671 43.9226 22.921C43.6101 23.1606 43.3757 23.4523 43.2195 23.796C43.0632 24.1294 42.9851 24.5096 42.9851 24.9366C42.9851 25.3533 43.0789 25.7283 43.2664 26.0616C43.4643 26.395 43.7455 26.6606 44.1101 26.8585C44.4851 27.046 44.9226 27.1398 45.4226 27.1398C46.1518 27.1398 46.7872 26.9939 47.3289 26.7023C47.8705 26.4002 48.2924 26.0356 48.5945 25.6085C48.8966 25.1814 49.058 24.7752 49.0789 24.3898L50.2664 26.171C50.1205 26.5981 49.9018 27.0512 49.6101 27.5304C49.3184 28.0096 48.9434 28.4575 48.4851 28.8741C48.0268 29.2908 47.4747 29.6346 46.8289 29.9054C46.183 30.1762 45.433 30.3116 44.5789 30.3116C43.4851 30.3116 42.5059 30.0929 41.6414 29.6554C40.7768 29.2179 40.0945 28.6189 39.5945 27.8585C39.0945 27.0981 38.8445 26.2335 38.8445 25.2648C38.8445 24.3689 39.0111 23.5773 39.3445 22.8898C39.6778 22.2023 40.1726 21.6241 40.8289 21.1554C41.4851 20.6762 42.2976 20.3169 43.2664 20.0773C44.2455 19.8273 45.3653 19.7023 46.6257 19.7023H49.407ZM61.407 25.9366L65.1101 13.0929H67.7351L66.9539 17.5304L63.2195 29.9991H60.9539L61.407 25.9366ZM59.3601 13.0929L62.1414 25.9679L62.3914 29.9991H59.782L55.3445 13.0929H59.3601ZM71.1726 25.7804L73.8914 13.0929H77.8914L73.4851 29.9991H70.8757L71.1726 25.7804ZM68.1414 13.0929L71.8132 25.8116L72.2976 29.9991H70.032L66.2664 17.5304L65.5007 13.0929H68.1414Z" fill="#AD5425"/>
<path d="M85.5476 29.9991H81.3914V12.1554C81.3914 10.7596 81.6726 9.58248 82.2351 8.62415C82.808 7.6554 83.6257 6.92102 84.6882 6.42102C85.7611 5.92102 87.0372 5.67102 88.5164 5.67102C89.3809 5.67102 90.2143 5.75956 91.0164 5.93665C91.8289 6.10331 92.6622 6.32206 93.5164 6.5929L92.907 9.93665C92.3549 9.75956 91.7507 9.5929 91.0945 9.43665C90.4486 9.2804 89.683 9.20227 88.7976 9.20227C87.7039 9.20227 86.8861 9.45227 86.3445 9.95227C85.8132 10.4523 85.5476 11.1866 85.5476 12.1554V29.9991ZM88.9226 13.0929V16.0616H78.8445V13.0929H88.9226ZM95.4539 13.0929V29.9991H91.3132V13.0929H95.4539Z" fill="#FF0000"/>
<path d="M31.8601 38.8781V46.4366H30.448V37.6593H31.7488L31.8601 38.8781ZM35.991 40.7706V40.8937C35.991 41.3546 35.9363 41.7823 35.8269 42.1769C35.7214 42.5675 35.5632 42.9093 35.3523 43.2023C35.1453 43.4913 34.8894 43.7159 34.5847 43.8761C34.28 44.0363 33.9285 44.1163 33.53 44.1163C33.1355 44.1163 32.7898 44.0441 32.4929 43.8995C32.2 43.7511 31.9519 43.5421 31.7488 43.2726C31.5457 43.0031 31.3816 42.6866 31.2566 42.3234C31.1355 41.9562 31.0496 41.5538 30.9988 41.1163V40.6417C31.0496 40.1769 31.1355 39.755 31.2566 39.3761C31.3816 38.9972 31.5457 38.671 31.7488 38.3976C31.9519 38.1241 32.2 37.9132 32.4929 37.7648C32.7859 37.6163 33.1277 37.5421 33.5183 37.5421C33.9167 37.5421 34.2703 37.6202 34.5789 37.7765C34.8875 37.9288 35.1472 38.1476 35.3582 38.4327C35.5691 38.714 35.7273 39.0538 35.8328 39.4523C35.9382 39.8468 35.991 40.2863 35.991 40.7706ZM34.5789 40.8937V40.7706C34.5789 40.4777 34.5515 40.2062 34.4968 39.9562C34.4421 39.7023 34.3562 39.4796 34.239 39.2882C34.1218 39.0968 33.9714 38.9484 33.7878 38.8429C33.6082 38.7335 33.3914 38.6788 33.1375 38.6788C32.8875 38.6788 32.6726 38.7218 32.4929 38.8077C32.3132 38.8898 32.1628 39.005 32.0417 39.1534C31.9207 39.3019 31.8269 39.4757 31.7605 39.6749C31.6941 39.8702 31.6472 40.0831 31.6199 40.3136V41.4503C31.6667 41.7316 31.7468 41.9894 31.8601 42.2238C31.9734 42.4581 32.1335 42.6456 32.3406 42.7863C32.5515 42.923 32.821 42.9913 33.1492 42.9913C33.4031 42.9913 33.6199 42.9366 33.7996 42.8273C33.9792 42.7179 34.1257 42.5675 34.239 42.3761C34.3562 42.1808 34.4421 41.9562 34.4968 41.7023C34.5515 41.4484 34.5789 41.1788 34.5789 40.8937ZM39.9871 44.1163C39.5183 44.1163 39.0945 44.0402 38.7156 43.8878C38.3406 43.7316 38.0203 43.5148 37.7546 43.2374C37.4929 42.9601 37.2917 42.6339 37.1511 42.2589C37.0105 41.8839 36.9402 41.4796 36.9402 41.046V40.8116C36.9402 40.3156 37.0125 39.8663 37.157 39.464C37.3015 39.0616 37.5027 38.7179 37.7605 38.4327C38.0183 38.1437 38.323 37.923 38.6746 37.7706C39.0261 37.6183 39.407 37.5421 39.8171 37.5421C40.2703 37.5421 40.6667 37.6183 41.0066 37.7706C41.3464 37.923 41.6277 38.1378 41.8503 38.4152C42.0769 38.6886 42.2449 39.0148 42.3542 39.3937C42.4675 39.7726 42.5242 40.1906 42.5242 40.6476V41.2511H37.6257V40.2374H41.1296V40.1261C41.1218 39.8722 41.071 39.6339 40.9773 39.4113C40.8875 39.1886 40.7488 39.0089 40.5613 38.8722C40.3738 38.7355 40.1238 38.6671 39.8113 38.6671C39.5769 38.6671 39.3679 38.7179 39.1843 38.8195C39.0046 38.9171 38.8542 39.0597 38.7332 39.2472C38.6121 39.4347 38.5183 39.6613 38.4519 39.9269C38.3894 40.1886 38.3582 40.4835 38.3582 40.8116V41.046C38.3582 41.3234 38.3953 41.5812 38.4695 41.8195C38.5476 42.0538 38.6609 42.2589 38.8093 42.4347C38.9578 42.6105 39.1375 42.7491 39.3484 42.8507C39.5593 42.9484 39.7996 42.9972 40.0691 42.9972C40.4089 42.9972 40.7117 42.9288 40.9773 42.7921C41.2429 42.6554 41.4734 42.462 41.6687 42.212L42.4128 42.9327C42.2761 43.132 42.0984 43.3234 41.8796 43.507C41.6609 43.6866 41.3933 43.8331 41.0769 43.9464C40.7644 44.0597 40.4011 44.1163 39.9871 44.1163ZM46.532 37.6593V38.6906H42.9578V37.6593H46.532ZM43.989 36.1066H45.4011V42.2472C45.4011 42.4425 45.4285 42.5929 45.4832 42.6984C45.5417 42.7999 45.6218 42.8683 45.7234 42.9034C45.825 42.9386 45.9441 42.9562 46.0808 42.9562C46.1785 42.9562 46.2722 42.9503 46.3621 42.9386C46.4519 42.9269 46.5242 42.9152 46.5789 42.9034L46.5847 43.9816C46.4675 44.0167 46.3308 44.048 46.1746 44.0753C46.0222 44.1027 45.8464 44.1163 45.6472 44.1163C45.323 44.1163 45.0359 44.0597 44.7859 43.9464C44.5359 43.8292 44.3406 43.6398 44.2 43.3781C44.0593 43.1163 43.989 42.7687 43.989 42.3351V36.1066ZM54.1667 42.2823C54.1667 42.1417 54.1316 42.0148 54.0613 41.9015C53.991 41.7843 53.8562 41.6788 53.657 41.5851C53.4617 41.4913 53.1726 41.4054 52.7898 41.3273C52.4539 41.2531 52.1453 41.1652 51.864 41.0636C51.5867 40.9581 51.3484 40.8312 51.1492 40.6827C50.95 40.5343 50.7957 40.3585 50.6863 40.1554C50.5769 39.9523 50.5222 39.7179 50.5222 39.4523C50.5222 39.1945 50.5789 38.9503 50.6921 38.7198C50.8054 38.4894 50.9675 38.2863 51.1785 38.1105C51.3894 37.9347 51.6453 37.796 51.946 37.6945C52.2507 37.5929 52.5906 37.5421 52.9656 37.5421C53.4968 37.5421 53.9519 37.632 54.3308 37.8116C54.7136 37.9874 55.0066 38.2277 55.2097 38.5323C55.4128 38.8331 55.5144 39.173 55.5144 39.5519H54.1023C54.1023 39.3839 54.0593 39.2277 53.9734 39.0831C53.8914 38.9347 53.7664 38.8156 53.5984 38.7257C53.4304 38.632 53.2195 38.5851 52.9656 38.5851C52.7234 38.5851 52.5222 38.6241 52.3621 38.7023C52.2058 38.7765 52.0886 38.8741 52.0105 38.9952C51.9363 39.1163 51.8992 39.2491 51.8992 39.3937C51.8992 39.4991 51.9187 39.5948 51.9578 39.6808C52.0007 39.7628 52.071 39.839 52.1687 39.9093C52.2664 39.9757 52.3992 40.0382 52.5671 40.0968C52.739 40.1554 52.9539 40.212 53.2117 40.2667C53.696 40.3683 54.1121 40.4991 54.4597 40.6593C54.8113 40.8156 55.0808 41.0187 55.2683 41.2687C55.4558 41.5148 55.5496 41.8273 55.5496 42.2062C55.5496 42.4874 55.489 42.7452 55.3679 42.9796C55.2507 43.2101 55.0789 43.4113 54.8523 43.5831C54.6257 43.7511 54.3542 43.882 54.0378 43.9757C53.7253 44.0695 53.3738 44.1163 52.9832 44.1163C52.4089 44.1163 51.9226 44.0148 51.5242 43.8116C51.1257 43.6046 50.823 43.3409 50.616 43.0206C50.4128 42.6964 50.3113 42.3605 50.3113 42.0128H51.6765C51.6921 42.2745 51.7644 42.4835 51.8933 42.6398C52.0261 42.7921 52.1902 42.9034 52.3855 42.9738C52.5847 43.0402 52.7898 43.0734 53.0007 43.0734C53.2546 43.0734 53.4675 43.0402 53.6394 42.9738C53.8113 42.9034 53.9421 42.8097 54.032 42.6925C54.1218 42.5714 54.1667 42.4347 54.1667 42.2823ZM58.1804 34.9991V43.9991H56.7742V34.9991H58.1804ZM57.9343 40.5948L57.4773 40.589C57.4812 40.1515 57.5417 39.7472 57.6589 39.3761C57.78 39.005 57.948 38.6827 58.1628 38.4093C58.3816 38.132 58.6433 37.9191 58.948 37.7706C59.2527 37.6183 59.5906 37.5421 59.9617 37.5421C60.2742 37.5421 60.5554 37.5851 60.8054 37.671C61.0593 37.757 61.2781 37.8956 61.4617 38.087C61.6453 38.2745 61.7839 38.5206 61.8777 38.8253C61.9753 39.1261 62.0242 39.4933 62.0242 39.9269V43.9991H60.6062V39.9152C60.6062 39.6105 60.5613 39.3683 60.4714 39.1886C60.3855 39.0089 60.2585 38.88 60.0906 38.8019C59.9226 38.7198 59.7175 38.6788 59.4753 38.6788C59.2214 38.6788 58.9968 38.7296 58.8015 38.8312C58.6101 38.9327 58.45 39.0714 58.321 39.2472C58.1921 39.423 58.0945 39.6261 58.0281 39.8566C57.9656 40.087 57.9343 40.3331 57.9343 40.5948ZM63.1843 40.8995V40.7648C63.1843 40.3077 63.2507 39.8839 63.3835 39.4933C63.5164 39.0988 63.7078 38.757 63.9578 38.4679C64.2117 38.1749 64.5203 37.9484 64.8835 37.7882C65.2507 37.6241 65.6648 37.5421 66.1257 37.5421C66.5906 37.5421 67.0046 37.6241 67.3679 37.7882C67.7351 37.9484 68.0457 38.1749 68.2996 38.4679C68.5535 38.757 68.7468 39.0988 68.8796 39.4933C69.0125 39.8839 69.0789 40.3077 69.0789 40.7648V40.8995C69.0789 41.3566 69.0125 41.7804 68.8796 42.171C68.7468 42.5616 68.5535 42.9034 68.2996 43.1964C68.0457 43.4855 67.7371 43.712 67.3738 43.8761C67.0105 44.0363 66.5984 44.1163 66.1375 44.1163C65.6726 44.1163 65.2566 44.0363 64.8894 43.8761C64.5261 43.712 64.2175 43.4855 63.9636 43.1964C63.7097 42.9034 63.5164 42.5616 63.3835 42.171C63.2507 41.7804 63.1843 41.3566 63.1843 40.8995ZM64.5964 40.7648V40.8995C64.5964 41.1847 64.6257 41.4542 64.6843 41.7081C64.7429 41.962 64.8347 42.1847 64.9597 42.3761C65.0847 42.5675 65.2449 42.7179 65.4402 42.8273C65.6355 42.9366 65.8679 42.9913 66.1375 42.9913C66.3992 42.9913 66.6257 42.9366 66.8171 42.8273C67.0125 42.7179 67.1726 42.5675 67.2976 42.3761C67.4226 42.1847 67.5144 41.962 67.573 41.7081C67.6355 41.4542 67.6667 41.1847 67.6667 40.8995V40.7648C67.6667 40.4835 67.6355 40.2179 67.573 39.9679C67.5144 39.714 67.4207 39.4894 67.2917 39.2941C67.1667 39.0988 67.0066 38.9464 66.8113 38.837C66.6199 38.7238 66.3914 38.6671 66.1257 38.6671C65.8601 38.6671 65.6296 38.7238 65.4343 38.837C65.2429 38.9464 65.0847 39.0988 64.9597 39.2941C64.8347 39.4894 64.7429 39.714 64.6843 39.9679C64.6257 40.2179 64.5964 40.4835 64.5964 40.7648ZM71.6804 38.8781V46.4366H70.2683V37.6593H71.5691L71.6804 38.8781ZM75.8113 40.7706V40.8937C75.8113 41.3546 75.7566 41.7823 75.6472 42.1769C75.5417 42.5675 75.3835 42.9093 75.1726 43.2023C74.9656 43.4913 74.7097 43.7159 74.405 43.8761C74.1003 44.0363 73.7488 44.1163 73.3503 44.1163C72.9558 44.1163 72.6101 44.0441 72.3132 43.8995C72.0203 43.7511 71.7722 43.5421 71.5691 43.2726C71.366 43.0031 71.2019 42.6866 71.0769 42.3234C70.9558 41.9562 70.8699 41.5538 70.8191 41.1163V40.6417C70.8699 40.1769 70.9558 39.755 71.0769 39.3761C71.2019 38.9972 71.366 38.671 71.5691 38.3976C71.7722 38.1241 72.0203 37.9132 72.3132 37.7648C72.6062 37.6163 72.948 37.5421 73.3386 37.5421C73.7371 37.5421 74.0906 37.6202 74.3992 37.7765C74.7078 37.9288 74.9675 38.1476 75.1785 38.4327C75.3894 38.714 75.5476 39.0538 75.6531 39.4523C75.7585 39.8468 75.8113 40.2863 75.8113 40.7706ZM74.3992 40.8937V40.7706C74.3992 40.4777 74.3718 40.2062 74.3171 39.9562C74.2625 39.7023 74.1765 39.4796 74.0593 39.2882C73.9421 39.0968 73.7917 38.9484 73.6082 38.8429C73.4285 38.7335 73.2117 38.6788 72.9578 38.6788C72.7078 38.6788 72.4929 38.7218 72.3132 38.8077C72.1335 38.8898 71.9832 39.005 71.8621 39.1534C71.741 39.3019 71.6472 39.4757 71.5808 39.6749C71.5144 39.8702 71.4675 40.0831 71.4402 40.3136V41.4503C71.4871 41.7316 71.5671 41.9894 71.6804 42.2238C71.7937 42.4581 71.9539 42.6456 72.1609 42.7863C72.3718 42.923 72.6414 42.9913 72.9695 42.9913C73.2234 42.9913 73.4402 42.9366 73.6199 42.8273C73.7996 42.7179 73.946 42.5675 74.0593 42.3761C74.1765 42.1808 74.2625 41.9562 74.3171 41.7023C74.3718 41.4484 74.3992 41.1788 74.3992 40.8937Z" fill="black"/>
</svg>
